<svg width="66" height="66" viewBox="0 0 66 66" fill="none" xmlns="http://www.w3.org/2000/svg">
<path d="M49 9L41.5 16.5V25H49.5L57.5 16.5L49.5 16L49 9Z" fill="#EB4335"/>
<circle cx="33" cy="33" r="3" fill="#EB4335"/>
<path d="M33.0016 19.2501C30.2821 19.2501 27.6237 20.0566 25.3625 21.5674C23.1013 23.0783 21.339 25.2258 20.2982 27.7382C19.2575 30.2507 18.9852 33.0154 19.5158 35.6826C20.0463 38.3499 21.3559 40.7999 23.2789 42.7229C25.2018 44.6458 27.6519 45.9554 30.3191 46.4859C32.9863 47.0165 35.751 46.7442 38.2635 45.7035C40.776 44.6628 42.9234 42.9004 44.4343 40.6392C45.9452 38.3781 46.7516 35.7196 46.7516 33.0001M35.7515 8.40139C30.6532 7.82942 25.5032 8.85591 21.0137 11.3389C16.5243 13.8218 12.9174 17.6385 10.692 22.261C8.46658 26.8835 7.73261 32.0833 8.59162 37.1412C9.45062 42.1991 11.8602 46.865 15.4869 50.4936C19.1137 54.1222 23.7784 56.534 28.8358 57.3956C33.8933 58.2572 39.0935 57.5258 43.7171 55.3027C48.3407 53.0796 52.1592 49.4746 54.6444 44.9865C57.1296 40.4983 58.1587 35.3487 57.5893 30.2501M41.2516 24.7501V16.5001L49.5016 8.25014V16.5001H57.7516L49.5016 24.7501H41.2516ZM41.2516 24.7501L33.0016 33.0001M30.2516 33.0001C30.2516 33.7295 30.5413 34.429 31.057 34.9447C31.5728 35.4604 32.2722 35.7501 33.0016 35.7501C33.7309 35.7501 34.4304 35.4604 34.9461 34.9447C35.4619 34.429 35.7516 33.7295 35.7516 33.0001C35.7516 32.2708 35.4619 31.5713 34.9461 31.0556C34.4304 30.5399 33.7309 30.2501 33.0016 30.2501C32.2722 30.2501 31.5728 30.5399 31.057 31.0556C30.5413 31.5713 30.2516 32.2708 30.2516 33.0001Z" stroke="#354052" stroke-width="2" stroke-linecap="round" stroke-linejoin="round"/>
</svg>
