<svg width="46" height="59" viewBox="0 0 46 59" fill="none" xmlns="http://www.w3.org/2000/svg">
<path d="M37.4408 13.3811C37.3237 13.0105 37.0978 12.6837 36.7926 12.443C36.4873 12.2024 36.1168 12.0591 35.7291 12.0317L27.4918 11.3658L24.3172 3.68224C24.1691 3.32209 23.9173 3.01408 23.5938 2.79733C23.2703 2.58057 22.8896 2.46484 22.5002 2.46484C22.1108 2.46484 21.7302 2.58057 21.4067 2.79733C21.0831 3.01408 20.8313 3.32209 20.6832 3.68224L17.5086 11.3631L9.27132 12.0317C8.88327 12.0593 8.51251 12.203 8.20724 12.4441C7.90197 12.6853 7.67631 13.0127 7.5596 13.3838C7.43793 13.7539 7.42858 14.1518 7.53272 14.5272C7.63685 14.9026 7.84982 15.2388 8.14475 15.4934L14.4338 20.9088L12.5198 29.0094C12.4299 29.3885 12.4546 29.7857 12.5907 30.1508C12.7267 30.5158 12.968 30.8323 13.284 31.0602C13.5961 31.2914 13.9708 31.4229 14.3589 31.4376C14.7471 31.4522 15.1306 31.3493 15.4592 31.1422L22.5002 26.8137L29.5522 31.149C29.8808 31.3561 30.2643 31.4591 30.6525 31.4444C31.0406 31.4298 31.4153 31.2982 31.7274 31.067C32.0434 30.8391 32.2847 30.5227 32.4207 30.1576C32.5568 29.7925 32.5814 29.3953 32.4916 29.0162L30.5776 20.9156L36.8557 15.4934C37.1512 15.2386 37.3644 14.9019 37.4686 14.526C37.5728 14.15 37.5631 13.7516 37.4408 13.3811ZM35.7811 14.252L29.1242 19.9942C29.0107 20.0922 28.9261 20.2194 28.8799 20.3621C28.8336 20.5049 28.8273 20.6575 28.8617 20.8035L30.8961 29.3881C30.9139 29.4529 30.911 29.5216 30.8877 29.5847C30.8644 29.6477 30.8219 29.7018 30.7662 29.7395C30.7158 29.7785 30.6544 29.8008 30.5907 29.8032C30.527 29.8057 30.4641 29.7882 30.4108 29.7531L22.9295 25.1567C22.8004 25.0773 22.6518 25.0354 22.5002 25.0354C22.3487 25.0354 22.2001 25.0773 22.0709 25.1567L14.5897 29.7518C14.5364 29.7868 14.4735 29.8043 14.4098 29.8018C14.346 29.7994 14.2847 29.7771 14.2342 29.7381C14.1773 29.7014 14.1334 29.6477 14.1089 29.5846C14.0843 29.5215 14.0803 29.4522 14.0975 29.3867L16.1319 20.8022C16.1663 20.6561 16.16 20.5035 16.1138 20.3608C16.0675 20.2181 15.9829 20.0908 15.8694 19.9928L9.21253 14.2506C9.1603 14.2081 9.12262 14.1503 9.10474 14.0854C9.08685 14.0205 9.08964 13.9516 9.11272 13.8883C9.13055 13.8259 9.1674 13.7707 9.21814 13.7302C9.26887 13.6898 9.33095 13.6662 9.39573 13.6627L18.1348 12.9572C18.2854 12.945 18.4297 12.8914 18.5517 12.8024C18.6738 12.7134 18.7689 12.5924 18.8266 12.4527L22.194 4.30431C22.2174 4.24399 22.2586 4.19217 22.312 4.15563C22.3654 4.1191 22.4287 4.09955 22.4934 4.09955C22.5581 4.09955 22.6213 4.1191 22.6748 4.15563C22.7282 4.19217 22.7693 4.24399 22.7928 4.30431L26.1602 12.4527C26.2179 12.5924 26.313 12.7134 26.435 12.8024C26.5571 12.8914 26.7014 12.945 26.852 12.9572L35.591 13.6627C35.6558 13.6662 35.7179 13.6898 35.7686 13.7302C35.8194 13.7707 35.8562 13.8259 35.8741 13.8883C35.8982 13.9511 35.9022 14.0198 35.8856 14.085C35.8689 14.1501 35.8324 14.2085 35.7811 14.252Z" fill="#343330"/>
<path d="M44.3883 45.5892C43.8927 45.2083 43.3156 44.947 42.702 44.8258C42.0884 44.7046 41.4551 44.7267 40.8515 44.8905L31.0758 47.125C31.4979 46.4045 31.7203 45.5847 31.7201 44.75C31.7201 43.4902 31.2188 42.2821 30.3265 41.3913C29.4342 40.5005 28.224 40 26.9621 40H17.0377C16.3084 39.9979 15.5859 40.1403 14.9121 40.4188C14.2383 40.6974 13.6265 41.1067 13.1123 41.6229L8.39393 46.3333H2.37901C1.74806 46.3333 1.14295 46.5836 0.696795 47.029C0.250645 47.4744 0 48.0785 0 48.7083V56.625C0 57.2549 0.250645 57.859 0.696795 58.3044C1.14295 58.7498 1.74806 59 2.37901 59H22.9971C23.0639 59.0004 23.1305 58.9925 23.1953 58.9762L35.8834 55.8096C35.9239 55.7991 35.9636 55.7858 36.0023 55.77L43.6984 52.4965L43.742 52.4767C44.3621 52.1672 44.8931 51.7053 45.2849 51.1345C45.6768 50.5636 45.9166 49.9025 45.9819 49.2135C46.0471 48.5246 45.9356 47.8303 45.6579 47.1963C45.3801 46.5622 44.9453 46.0091 44.3943 45.5892H44.3883ZM1.586 56.625V48.7083C1.586 48.4984 1.66955 48.297 1.81827 48.1485C1.96699 48.0001 2.16869 47.9167 2.37901 47.9167H7.93002V57.4167H2.37901C2.16869 57.4167 1.96699 57.3333 1.81827 57.1848C1.66955 57.0363 1.586 56.8349 1.586 56.625ZM43.0462 51.0497L35.4314 54.2896L22.8999 57.4167H9.51603V47.4536L14.2344 42.7431C14.6016 42.3743 15.0384 42.0819 15.5196 41.8828C16.0008 41.6837 16.5168 41.5819 17.0377 41.5834H26.9621C27.8034 41.5834 28.6102 41.917 29.205 42.5108C29.7999 43.1047 30.1341 43.9102 30.1341 44.75C30.1341 45.5899 29.7999 46.3953 29.205 46.9892C28.6102 47.583 27.8034 47.9167 26.9621 47.9167H21.4111C21.2007 47.9167 20.999 48.0001 20.8503 48.1485C20.7016 48.297 20.6181 48.4984 20.6181 48.7083C20.6181 48.9183 20.7016 49.1197 20.8503 49.2681C20.999 49.4166 21.2007 49.5 21.4111 49.5H27.7551C27.8151 49.5003 27.875 49.4936 27.9335 49.4802L41.2163 46.4303H41.248C41.8432 46.2728 42.4757 46.3402 43.0241 46.6198C43.5726 46.8993 43.9982 47.3712 44.2194 47.9449C44.4406 48.5186 44.4418 49.1536 44.2227 49.7281C44.0036 50.3026 43.5797 50.7761 43.0323 51.0576L43.0462 51.0497Z" fill="#343330"/>
</svg>
