<svg width="74" height="71" viewBox="0 0 74 71" fill="none" xmlns="http://www.w3.org/2000/svg">
<path d="M26.25 31.5C26.25 32.8924 26.8031 34.2277 27.7877 35.2123C28.7723 36.1969 30.1076 36.75 31.5 36.75C32.8924 36.75 34.2277 36.1969 35.2123 35.2123C36.1969 34.2277 36.75 32.8924 36.75 31.5C36.75 30.1076 36.1969 28.7723 35.2123 27.7877C34.2277 26.8031 32.8924 26.25 31.5 26.25C30.1076 26.25 28.7723 26.8031 27.7877 27.7877C26.8031 28.7723 26.25 30.1076 26.25 31.5Z" stroke="#354052" stroke-width="2" stroke-linecap="round" stroke-linejoin="round"/>
<path d="M55.125 31.5C48.825 42 40.95 47.25 31.5 47.25C22.05 47.25 14.175 42 7.875 31.5C14.175 21 22.05 15.75 31.5 15.75C40.95 15.75 48.825 21 55.125 31.5Z" stroke="#354052" stroke-width="2" stroke-linecap="round" stroke-linejoin="round"/>
<path d="M61.1877 67.25C61.1877 67.4986 61.0889 67.7371 60.9131 67.9129C60.7373 68.0887 60.4988 68.1875 60.2502 68.1875H47.7502C47.5016 68.1875 47.2631 68.0887 47.0873 67.9129C46.9115 67.7371 46.8127 67.4986 46.8127 67.25C46.8127 67.0013 46.9115 66.7629 47.0873 66.5871C47.2631 66.4113 47.5016 66.3125 47.7502 66.3125H60.2502C60.4988 66.3125 60.7373 66.4113 60.9131 66.5871C61.0889 66.7629 61.1877 67.0013 61.1877 67.25ZM67.4377 47.25C67.443 49.2866 66.9828 51.2975 66.0925 53.1291C65.2021 54.9608 63.905 56.5648 62.3002 57.8187C61.9561 58.0833 61.6769 58.4229 61.4841 58.8118C61.2913 59.2007 61.1899 59.6284 61.1877 60.0625V61C61.1877 61.5801 60.9572 62.1365 60.547 62.5468C60.1368 62.957 59.5804 63.1875 59.0002 63.1875H49.0002C48.42 63.1875 47.8636 62.957 47.4534 62.5468C47.0432 62.1365 46.8127 61.5801 46.8127 61V60.0625C46.8123 59.633 46.7135 59.2092 46.5239 58.8238C46.3343 58.4384 46.0589 58.1015 45.719 57.8391C44.1193 56.5933 42.8238 55.0001 41.9306 53.1799C41.0373 51.3598 40.5695 49.3603 40.5627 47.3328C40.5221 40.0484 46.4049 33.9875 53.6768 33.8125C55.4684 33.7693 57.2506 34.085 58.9185 34.741C60.5863 35.397 62.1061 36.3799 63.3883 37.632C64.6705 38.8841 65.6894 40.3801 66.3848 42.0319C67.0802 43.6836 67.4382 45.4578 67.4377 47.25ZM65.5627 47.25C65.5632 45.7078 65.2551 44.181 64.6566 42.7596C64.0581 41.3383 63.1813 40.051 62.0779 38.9736C60.9744 37.8962 59.6665 37.0504 58.2312 36.486C56.796 35.9217 55.2623 35.6502 53.7205 35.6875C47.4643 35.8437 42.4033 41.0531 42.4377 47.3156C42.4436 49.0606 42.8462 50.7813 43.615 52.3478C44.3837 53.9143 45.4986 55.2855 46.8752 56.3578C47.4405 56.7956 47.8979 57.3572 48.2121 57.9995C48.5263 58.6417 48.689 59.3475 48.6877 60.0625V61C48.6877 61.0829 48.7206 61.1624 48.7792 61.221C48.8378 61.2796 48.9173 61.3125 49.0002 61.3125H59.0002C59.0831 61.3125 59.1626 61.2796 59.2212 61.221C59.2798 61.1624 59.3127 61.0829 59.3127 61V60.0625C59.3146 59.3449 59.4803 58.6372 59.7971 57.9933C60.1139 57.3494 60.5735 56.7863 61.1408 56.3469C62.5226 55.268 63.6393 53.8874 64.4057 52.3107C65.1721 50.7341 65.5679 49.003 65.5627 47.25ZM62.4252 45.8437C62.1126 44.0968 61.2723 42.4876 60.0174 41.2328C58.7626 39.9779 57.1534 39.1376 55.4065 38.825C55.285 38.8045 55.1607 38.8081 55.0406 38.8356C54.9205 38.8631 54.807 38.914 54.7066 38.9854C54.5038 39.1296 54.3666 39.3484 54.3252 39.5937C54.2838 39.8391 54.3415 40.0908 54.4857 40.2936C54.6298 40.4963 54.8486 40.6335 55.094 40.675C57.8096 41.1312 60.1143 43.4375 60.5752 46.1562C60.6121 46.3745 60.7251 46.5727 60.8941 46.7157C61.0631 46.8587 61.2773 46.9373 61.4986 46.9375C61.551 46.9371 61.6032 46.933 61.6549 46.925C61.7765 46.9047 61.893 46.8607 61.9976 46.7953C62.1022 46.73 62.1929 46.6446 62.2644 46.5442C62.336 46.4438 62.387 46.3302 62.4146 46.21C62.4422 46.0898 62.4458 45.9653 62.4252 45.8437Z" fill="#354052"/>
</svg>
